<svg xmlns="http://www.w3.org/2000/svg" width="140mm" height="190mm" viewBox="0 0 1400 1900">
  <defs>
    <style>
      .en-title { font-family: Arial; font-size: 34px; font-weight: 700; fill: #111111; }
      .en-sub { font-family: Arial; font-size: 16px; font-weight: 700; fill: #444444; }
      .en-h1 { font-family: Arial; font-size: 18px; font-weight: 700; fill: #111111; }
      .en-h2 { font-family: Arial; font-size: 14px; font-weight: 700; fill: #111111; }
      .en-txt { font-family: Arial; font-size: 12px; font-weight: 700; fill: #222222; }
      .en-tiny { font-family: Arial; font-size: 10px; font-weight: 700; fill: #333333; }
      .zh-note { font-family: SimHei; font-size: 12px; font-weight: 700; fill: #333333; }
      .mod-chem { fill: #f5fbf6; stroke: #4d8b55; stroke-width: 2.2; }
      .mod-ctx { fill: #f5f9ff; stroke: #2e6bd0; stroke-width: 2.2; }
      .mod-rule { fill: #fff8f2; stroke: #d46a1d; stroke-width: 2.2; }
      .mod-out { fill: #fbfbfb; stroke: #666666; stroke-width: 2.0; }
      .soft { fill: #ffffff; stroke: #b8b8b8; stroke-width: 1.3; }
      .dash-chem { fill: none; stroke: #7bac84; stroke-width: 1.5; stroke-dasharray: 6 4; }
      .dash-ctx { fill: none; stroke: #5c8fe0; stroke-width: 1.5; stroke-dasharray: 6 4; }
      .dash-rule { fill: none; stroke: #ea934d; stroke-width: 1.5; stroke-dasharray: 6 4; }
      .arrow-chem { stroke: #4d8b55; stroke-width: 2.0; fill: none; marker-end: url(#arrChem); }
      .arrow-ctx { stroke: #2e6bd0; stroke-width: 2.0; fill: none; marker-end: url(#arrCtx); }
      .arrow-rule { stroke: #d46a1d; stroke-width: 2.0; fill: none; marker-end: url(#arrRule); }
      .arrow-out { stroke: #555555; stroke-width: 2.0; fill: none; marker-end: url(#arrOut); }
    </style>
    <marker id="arrChem" markerWidth="10" markerHeight="10" refX="8" refY="5" orient="auto">
      <path d="M0,0 L10,5 L0,10 z" fill="#4d8b55"/>
    </marker>
    <marker id="arrCtx" markerWidth="10" markerHeight="10" refX="8" refY="5" orient="auto">
      <path d="M0,0 L10,5 L0,10 z" fill="#2e6bd0"/>
    </marker>
    <marker id="arrRule" markerWidth="10" markerHeight="10" refX="8" refY="5" orient="auto">
      <path d="M0,0 L10,5 L0,10 z" fill="#d46a1d"/>
    </marker>
    <marker id="arrOut" markerWidth="10" markerHeight="10" refX="8" refY="5" orient="auto">
      <path d="M0,0 L10,5 L0,10 z" fill="#555555"/>
    </marker>
  </defs>

  <rect x="0" y="0" width="1400" height="1900" fill="#ffffff"/>

  <text x="700" y="58" text-anchor="middle" class="en-title">Unified Multi-task Residual-QSAR</text>
  <text x="700" y="84" text-anchor="middle" class="en-sub">Chemical main effect + conditional residual + optional rule correction + AD / uncertainty / SSD</text>
  <text x="700" y="107" text-anchor="middle" class="zh-note">正式论文图，字体规则：中文黑体，英文 Arial，不使用字体回退</text>

  <rect x="28" y="130" width="190" height="330" rx="18" class="mod-out"/>
  <text x="123" y="168" text-anchor="middle" class="en-h1">Input</text>
  <text x="48" y="212" class="en-txt">Chemical identity</text>
  <rect x="48" y="226" width="150" height="80" rx="10" class="soft"/>
  <text x="123" y="272" text-anchor="middle" class="en-h2">SMILES / CAS / DTXSID</text>
  <text x="48" y="338" class="en-txt">Condition tuple</text>
  <rect x="48" y="352" width="150" height="88" rx="10" class="soft"/>
  <text x="60" y="376" class="en-tiny">medium</text>
  <text x="60" y="394" class="en-tiny">species</text>
  <text x="60" y="412" class="en-tiny">duration_h</text>
  <text x="132" y="376" class="en-tiny">effect_type</text>
  <text x="132" y="394" class="en-tiny">observation</text>
  <text x="132" y="412" class="en-tiny">effect_level / none</text>

  <rect x="242" y="130" width="382" height="330" rx="18" class="mod-chem"/>
  <text x="433" y="168" text-anchor="middle" class="en-h1">Chemical Encoder</text>
  <rect x="268" y="194" width="148" height="226" rx="12" class="dash-chem"/>
  <text x="342" y="222" text-anchor="middle" class="en-h2">Descriptor Groups</text>
  <text x="284" y="254" class="en-tiny">constitutional</text>
  <text x="284" y="272" class="en-tiny">topological</text>
  <text x="284" y="290" class="en-tiny">electronic</text>
  <text x="284" y="308" class="en-tiny">physicochemical</text>
  <text x="284" y="326" class="en-tiny">fragment-related</text>
  <text x="284" y="344" class="en-tiny">3D / geometric</text>
  <text x="284" y="380" class="en-tiny">group-specific heads</text>
  <rect x="430" y="194" width="100" height="226" rx="12" class="dash-chem"/>
  <text x="480" y="222" text-anchor="middle" class="en-h2">Group</text>
  <text x="480" y="242" text-anchor="middle" class="en-h2">Weighting</text>
  <text x="448" y="282" class="en-tiny">intra-group</text>
  <text x="448" y="300" class="en-tiny">trainable</text>
  <text x="448" y="334" class="en-tiny">inter-group</text>
  <text x="448" y="352" class="en-tiny">trainable</text>
  <rect x="544" y="194" width="58" height="226" rx="12" class="dash-chem"/>
  <text x="573" y="222" text-anchor="middle" class="en-h2">MLP</text>
  <rect x="556" y="275" width="12" height="92" fill="#acd8b3" stroke="#4d8b55"/>
  <rect x="574" y="260" width="12" height="122" fill="#8dc797" stroke="#4d8b55"/>
  <rect x="430" y="430" width="172" height="0" fill="none"/>
  <rect x="458" y="358" width="12" height="12" fill="#cde6d1" stroke="#4d8b55"/>
  <rect x="478" y="350" width="12" height="20" fill="#bcdcbf" stroke="#4d8b55"/>
  <rect x="498" y="342" width="12" height="28" fill="#add2b2" stroke="#4d8b55"/>
  <rect x="518" y="334" width="12" height="36" fill="#9ac7a1" stroke="#4d8b55"/>
  <rect x="268" y="430" width="150" height="0" fill="none"/>
  <rect x="268" y="430" width="148" height="0" fill="none"/>
  <rect x="268" y="430" width="148" height="0" fill="none"/>
  <rect x="268" y="430" width="148" height="0" fill="none"/>
  <rect x="268" y="430" width="148" height="0" fill="none"/>
  <rect x="268" y="430" width="148" height="0" fill="none"/>
  <rect x="268" y="430" width="148" height="0" fill="none"/>
  <rect x="268" y="430" width="148" height="0" fill="none"/>
  <rect x="268" y="430" width="148" height="0" fill="none"/>
  <rect x="268" y="430" width="148" height="0" fill="none"/>
  <rect x="268" y="430" width="148" height="0" fill="none"/>
  <rect x="268" y="430" width="148" height="0" fill="none"/>
  <rect x="268" y="430" width="148" height="0" fill="none"/>
  <rect x="268" y="430" width="148" height="0" fill="none"/>
  <rect x="268" y="430" width="148" height="0" fill="none"/>
  <rect x="268" y="430" width="148" height="0" fill="none"/>
  <rect x="268" y="430" width="148" height="0" fill="none"/>
  <rect x="268" y="430" width="148" height="0" fill="none"/>
  <rect x="268" y="430" width="148" height="0" fill="none"/>
  <rect x="268" y="430" width="148" height="0" fill="none"/>
  <rect x="268" y="430" width="148" height="0" fill="none"/>
  <rect x="268" y="430" width="148" height="0" fill="none"/>
  <rect x="268" y="430" width="148" height="0" fill="none"/>
  <rect x="268" y="430" width="148" height="0" fill="none"/>
  <rect x="268" y="430" width="148" height="0" fill="none"/>
  <rect x="268" y="430" width="148" height="0" fill="none"/>
  <rect x="268" y="430" width="148" height="0" fill="none"/>
  <rect x="268" y="430" width="148" height="0" fill="none"/>
  <rect x="268" y="430" width="148" height="0" fill="none"/>
  <rect x="268" y="430" width="148" height="0" fill="none"/>
  <rect x="268" y="430" width="148" height="0" fill="none"/>
  <rect x="268" y="430" width="148" height="0" fill="none"/>
  <rect x="268" y="430" width="148" height="0" fill="none"/>
  <rect x="268" y="430" width="148" height="0" fill="none"/>
  <rect x="268" y="430" width="148" height="0" fill="none"/>
  <rect x="268" y="430" width="148" height="0" fill="none"/>
  <rect x="268" y="430" width="148" height="0" fill="none"/>
  <rect x="268" y="430" width="148" height="0" fill="none"/>
  <rect x="268" y="430" width="148" height="0" fill="none"/>
  <rect x="268" y="430" width="148" height="0" fill="none"/>
  <rect x="268" y="430" width="148" height="0" fill="none"/>
  <rect x="268" y="430" width="148" height="0" fill="none"/>
  <rect x="270" y="430" width="220" height="0" fill="none"/>
  <rect x="268" y="194" width="0" height="0" fill="none"/>
  <rect x="268" y="194" width="0" height="0" fill="none"/>
  <rect x="268" y="194" width="0" height="0" fill="none"/>
  <rect x="268" y="194" width="0" height="0" fill="none"/>
  <rect x="268" y="194" width="0" height="0" fill="none"/>
  <rect x="268" y="194" width="0" height="0" fill="none"/>
  <rect x="268" y="194" width="0" height="0" fill="none"/>
  <rect x="268" y="194" width="0" height="0" fill="none"/>
  <rect x="268" y="194" width="0" height="0" fill="none"/>
  <rect x="268" y="194" width="0" height="0" fill="none"/>
  <rect x="268" y="194" width="0" height="0" fill="none"/>
  <rect x="268" y="194" width="0" height="0" fill="none"/>
  <rect x="268" y="194" width="0" height="0" fill="none"/>
  <rect x="268" y="194" width="0" height="0" fill="none"/>
  <rect x="268" y="194" width="0" height="0" fill="none"/>
  <rect x="268" y="194" width="0" height="0" fill="none"/>
  <rect x="268" y="194" width="0" height="0" fill="none"/>
  <rect x="268" y="194" width="0" height="0" fill="none"/>
  <rect x="268" y="194" width="0" height="0" fill="none"/>
  <rect x="268" y="194" width="0" height="0" fill="none"/>
  <rect x="268" y="194" width="0" height="0" fill="none"/>
  <rect x="268" y="194" width="0" height="0" fill="none"/>
  <rect x="268" y="194" width="0" height="0" fill="none"/>
  <rect x="268" y="194" width="0" height="0" fill="none"/>
  <rect x="268" y="194" width="0" height="0" fill="none"/>
  <rect x="268" y="194" width="0" height="0" fill="none"/>
  <rect x="268" y="194" width="0" height="0" fill="none"/>
  <rect x="268" y="194" width="0" height="0" fill="none"/>
  <rect x="268" y="194" width="0" height="0" fill="none"/>
  <rect x="268" y="194" width="0" height="0" fill="none"/>
  <rect x="268" y="194" width="0" height="0" fill="none"/>
  <rect x="268" y="194" width="0" height="0" fill="none"/>
  <rect x="268" y="194" width="0" height="0" fill="none"/>
  <rect x="268" y="194" width="0" height="0" fill="none"/>
  <rect x="268" y="194" width="0" height="0" fill="none"/>
  <rect x="268" y="194" width="0" height="0" fill="none"/>
  <rect x="268" y="194" width="0" height="0" fill="none"/>
  <rect x="268" y="194" width="0" height="0" fill="none"/>
  <rect x="268" y="194" width="0" height="0" fill="none"/>
  <rect x="268" y="194" width="0" height="0" fill="none"/>
  <rect x="268" y="194" width="0" height="0" fill="none"/>
  <rect x="268" y="194" width="0" height="0" fill="none"/>
  <rect x="268" y="194" width="0" height="0" fill="none"/>
  <rect x="268" y="194" width="0" height="0" fill="none"/>
  <rect x="268" y="194" width="0" height="0" fill="none"/>
  <rect x="268" y="194" width="0" height="0" fill="none"/>
  <rect x="268" y="194" width="0" height="0" fill="none"/>
  <rect x="268" y="194" width="0" height="0" fill="none"/>
  <rect x="268" y="194" width="0" height="0" fill="none"/>
  <rect x="268" y="194" width="0" height="0" fill="none"/>
  <rect x="268" y="430" width="148" height="0" fill="none"/>
  <rect x="268" y="430" width="148" height="0" fill="none"/>
  <rect x="268" y="430" width="148" height="0" fill="none"/>
  <rect x="268" y="430" width="148" height="0" fill="none"/>
  <rect x="268" y="430" width="148" height="0" fill="none"/>
  <text x="572" y="438" text-anchor="middle" class="en-tiny">shared chemical embedding</text>
  <rect x="430" y="226" width="0" height="0" fill="none"/>
  <rect x="430" y="226" width="0" height="0" fill="none"/>
  <rect x="430" y="226" width="0" height="0" fill="none"/>
  <rect x="430" y="226" width="0" height="0" fill="none"/>
  <rect x="430" y="226" width="0" height="0" fill="none"/>
  <rect x="430" y="226" width="0" height="0" fill="none"/>
  <rect x="430" y="226" width="0" height="0" fill="none"/>
  <rect x="430" y="226" width="0" height="0" fill="none"/>
  <rect x="430" y="226" width="0" height="0" fill="none"/>
  <rect x="430" y="226" width="0" height="0" fill="none"/>
  <rect x="430" y="226" width="0" height="0" fill="none"/>
  <rect x="430" y="226" width="0" height="0" fill="none"/>
  <rect x="430" y="226" width="0" height="0" fill="none"/>
  <rect x="430" y="226" width="0" height="0" fill="none"/>
  <rect x="430" y="226" width="0" height="0" fill="none"/>
  <rect x="430" y="226" width="0" height="0" fill="none"/>
  <path d="M198 266 L268 266" class="arrow-chem"/>
  <rect x="268" y="468" width="334" height="0" fill="none"/>
  <rect x="634" y="130" width="416" height="330" rx="18" class="mod-ctx"/>
  <text x="842" y="168" text-anchor="middle" class="en-h1">Context / Endpoint Encoder</text>
  <rect x="660" y="194" width="120" height="230" rx="12" class="dash-ctx"/>
  <text x="720" y="222" text-anchor="middle" class="en-h2">Species / Medium</text>
  <text x="676" y="256" class="en-tiny">species_id</text>
  <text x="676" y="274" class="en-tiny">taxon_group_l1 / l2 / l3</text>
  <text x="676" y="292" class="en-tiny">genus / family</text>
  <text x="676" y="310" class="en-tiny">lifestage</text>
  <text x="676" y="328" class="en-tiny">primary medium</text>
  <text x="676" y="346" class="en-tiny">habitat / curated group</text>
  <rect x="798" y="194" width="132" height="230" rx="12" class="dash-ctx"/>
  <text x="864" y="222" text-anchor="middle" class="en-h2">Endpoint Semantics</text>
  <text x="814" y="256" class="en-tiny">EC / LC / NOEC / LOEC</text>
  <text x="814" y="274" class="en-tiny">BCF / BAF / ICx</text>
  <text x="814" y="292" class="en-tiny">endpoint_observation</text>
  <text x="814" y="310" class="en-tiny">is_lethal</text>
  <text x="814" y="328" class="en-tiny">is_chronic</text>
  <text x="814" y="346" class="en-tiny">is_threshold_endpoint</text>
  <text x="814" y="364" class="en-tiny">is_bioaccumulation</text>
  <rect x="948" y="194" width="78" height="230" rx="12" class="dash-ctx"/>
  <text x="987" y="222" text-anchor="middle" class="en-h2">Exposure</text>
  <text x="962" y="256" class="en-tiny">duration_h</text>
  <text x="962" y="274" class="en-tiny">log(1+h)</text>
  <text x="962" y="308" class="en-tiny">fraction</text>
  <text x="962" y="326" class="en-tiny">logit(level)</text>
  <text x="962" y="344" class="en-tiny">probit(level)</text>
  <text x="962" y="382" class="en-tiny">BCF/BAF</text>
  <text x="962" y="400" class="en-tiny">no level</text>
  <text x="828" y="438" text-anchor="middle" class="en-tiny">context embedding with structured endpoint coding</text>

  <rect x="1070" y="130" width="302" height="330" rx="18" class="mod-out"/>
  <text x="1221" y="168" text-anchor="middle" class="en-h1">Residual Fusion and Output</text>
  <rect x="1096" y="204" width="96" height="78" rx="12" class="mod-chem"/>
  <text x="1144" y="234" text-anchor="middle" class="en-h2">Chemical</text>
  <text x="1144" y="252" text-anchor="middle" class="en-h2">main effect</text>
  <text x="1144" y="271" text-anchor="middle" class="en-tiny">y_chemical</text>
  <rect x="1212" y="204" width="96" height="78" rx="12" class="mod-ctx"/>
  <text x="1260" y="234" text-anchor="middle" class="en-h2">Context</text>
  <text x="1260" y="252" text-anchor="middle" class="en-h2">residual</text>
  <text x="1260" y="271" text-anchor="middle" class="en-tiny">delta_y_context</text>
  <rect x="1156" y="304" width="96" height="78" rx="12" class="mod-rule"/>
  <text x="1204" y="334" text-anchor="middle" class="en-h2">Rule</text>
  <text x="1204" y="352" text-anchor="middle" class="en-h2">correction</text>
  <text x="1204" y="371" text-anchor="middle" class="en-tiny">delta_y_rule</text>
  <circle cx="1294" cy="343" r="18" fill="#ffffff" stroke="#444444" stroke-width="2"/>
  <text x="1294" y="349" text-anchor="middle" class="en-h1">+</text>
  <rect x="1096" y="404" width="244" height="34" rx="10" class="soft"/>
  <text x="1218" y="426" text-anchor="middle" class="en-txt">conditional multi-task prediction</text>

  <path d="M602 250 L660 250" class="arrow-chem"/>
  <path d="M602 336 L798 336" class="arrow-ctx"/>
  <path d="M1030 250 L1096 250" class="arrow-ctx"/>
  <path d="M602 250 L1096 238" class="arrow-chem"/>
  <path d="M1204 304 L1204 282" class="arrow-rule"/>
  <path d="M1192 243 L1212 243" class="arrow-out"/>

  <rect x="28" y="500" width="1344" height="570" rx="20" class="mod-chem"/>
  <text x="54" y="540" class="en-h1">1. Unified Multi-task Core</text>

  <rect x="54" y="566" width="286" height="474" rx="14" class="dash-chem"/>
  <text x="74" y="598" class="en-h2">Task Definition</text>
  <text x="74" y="630" class="en-txt">task = species + endpoint semantics</text>
  <text x="74" y="662" class="en-tiny">species + EC_mortality</text>
  <text x="74" y="680" class="en-tiny">species + EC_growth</text>
  <text x="74" y="698" class="en-tiny">species + EC_reproduction</text>
  <text x="74" y="716" class="en-tiny">species + NOEC_reproduction</text>
  <text x="74" y="734" class="en-tiny">species + BCF_bioaccumulation</text>
  <text x="74" y="774" class="en-tiny">effect_level is not task id</text>
  <text x="74" y="792" class="en-tiny">LCx merged into ECx + mortality</text>
  <text x="74" y="810" class="en-tiny">NR excluded from modeling</text>
  <text x="74" y="828" class="en-tiny">BCF / BAF: no effect_level</text>
  <text x="74" y="846" class="en-tiny">duration-sensitive family</text>
  <text x="74" y="886" class="en-tiny">metadata per task</text>
  <text x="92" y="904" class="en-tiny">target_unit</text>
  <text x="92" y="922" class="en-tiny">target_transform</text>
  <text x="92" y="940" class="en-tiny">task_index / task_embedding</text>
  <text x="92" y="958" class="en-tiny">family flags</text>

  <rect x="360" y="566" width="376" height="474" rx="14" class="dash-ctx"/>
  <text x="380" y="598" class="en-h2">Target and Training Space</text>
  <text x="380" y="630" class="en-txt">train space and report space separated</text>
  <text x="380" y="666" class="en-tiny">EC / LC / ICx:</text>
  <text x="398" y="684" class="en-tiny">group-wise unit harmonization</text>
  <text x="398" y="702" class="en-tiny">stable train-space transform optional</text>
  <text x="380" y="734" class="en-tiny">NOEC / LOEC:</text>
  <text x="398" y="752" class="en-tiny">threshold-family target definition</text>
  <text x="380" y="784" class="en-tiny">BCF / BAF:</text>
  <text x="398" y="802" class="en-tiny">stable log-scale train target allowed</text>
  <text x="398" y="820" class="en-tiny">reported back in original factor space</text>
  <text x="380" y="860" class="en-tiny">single shared multi-task model</text>
  <text x="380" y="878" class="en-tiny">Huber loss</text>
  <text x="380" y="896" class="en-tiny">task-balanced sampling</text>
  <text x="380" y="914" class="en-tiny">AdamW + ReduceLROnPlateau</text>
  <text x="380" y="932" class="en-tiny">gradient clipping + early stopping</text>
  <text x="380" y="970" class="en-tiny">artifacts</text>
  <text x="398" y="988" class="en-tiny">resolved_config.yaml</text>
  <text x="398" y="1006" class="en-tiny">feature_schema.json</text>
  <text x="398" y="1024" class="en-tiny">task_mapping.csv / target_scaler_by_task.csv</text>

  <rect x="756" y="566" width="266" height="474" rx="14" class="dash-ctx"/>
  <text x="776" y="598" class="en-h2">Transfer Lines</text>
  <text x="776" y="630" class="en-tiny">direct joint</text>
  <text x="794" y="648" class="en-tiny">water</text>
  <text x="794" y="666" class="en-tiny">water + sediment</text>
  <text x="794" y="684" class="en-tiny">water + sediment + soil</text>
  <text x="776" y="724" class="en-tiny">transfer learning</text>
  <text x="794" y="742" class="en-tiny">pretrain water</text>
  <text x="794" y="760" class="en-tiny">pretrain water + sediment</text>
  <text x="794" y="778" class="en-tiny">finetune soil</text>
  <text x="776" y="818" class="en-tiny">allowed strategy</text>
  <text x="794" y="836" class="en-tiny">freeze chemical encoder</text>
  <text x="794" y="854" class="en-tiny">partial freeze</text>
  <text x="794" y="872" class="en-tiny">module-wise learning rates</text>

  <rect x="1042" y="566" width="304" height="474" rx="14" class="dash-rule"/>
  <text x="1062" y="598" class="en-h2">Chemical Main-effect Detail</text>
  <text x="1062" y="632" class="en-tiny">descriptor groups by principle</text>
  <text x="1062" y="650" class="en-tiny">group-specific heads</text>
  <text x="1062" y="668" class="en-tiny">trainable intra-group weighting</text>
  <text x="1062" y="686" class="en-tiny">trainable inter-group fusion</text>
  <text x="1062" y="704" class="en-tiny">parallel Morgan fingerprint branch</text>
  <text x="1062" y="722" class="en-tiny">fused chemical embedding</text>
  <text x="1062" y="758" class="en-tiny">context detail</text>
  <text x="1062" y="776" class="en-tiny">species / medium / lifestage embedding</text>
  <text x="1062" y="794" class="en-tiny">endpoint semantic code</text>
  <text x="1062" y="812" class="en-tiny">duration transform</text>
  <text x="1062" y="830" class="en-tiny">fraction + logit + probit features</text>
  <text x="1062" y="866" class="en-tiny">rule interface retained</text>
  <text x="1062" y="884" class="en-tiny">for future calibrated correction</text>

  <rect x="28" y="1100" width="1344" height="380" rx="20" class="mod-ctx"/>
  <text x="54" y="1140" class="en-h1">2. Baseline, Ablation, Evaluation, Reliability</text>

  <rect x="54" y="1166" width="292" height="286" rx="14" class="dash-ctx"/>
  <text x="74" y="1198" class="en-h2">Baseline Family</text>
  <text x="74" y="1232" class="en-tiny">Ridge / ElasticNet</text>
  <text x="74" y="1250" class="en-tiny">RandomForest</text>
  <text x="74" y="1268" class="en-tiny">XGBoost</text>
  <text x="74" y="1286" class="en-tiny">LightGBM</text>
  <text x="74" y="1304" class="en-tiny">CatBoost</text>
  <text x="74" y="1344" class="en-tiny">same task schema</text>
  <text x="74" y="1362" class="en-tiny">same split protocol</text>
  <text x="74" y="1380" class="en-tiny">same target definition</text>

  <rect x="366" y="1166" width="354" height="286" rx="14" class="dash-ctx"/>
  <text x="386" y="1198" class="en-h2">Ablation Matrix</text>
  <text x="386" y="1232" class="en-tiny">RDKit only / Morgan only / both</text>
  <text x="386" y="1250" class="en-tiny">descriptor flat fusion / grouped heads</text>
  <text x="386" y="1268" class="en-tiny">context on / off</text>
  <text x="386" y="1286" class="en-tiny">simple endpoint / structured endpoint</text>
  <text x="386" y="1304" class="en-tiny">raw level / nonlinear level features</text>
  <text x="386" y="1322" class="en-tiny">direct joint / transfer learning</text>

  <rect x="740" y="1166" width="280" height="286" rx="14" class="dash-ctx"/>
  <text x="760" y="1198" class="en-h2">Evaluation Priority</text>
  <text x="760" y="1232" class="en-tiny">scaffold holdout priority</text>
  <text x="760" y="1250" class="en-tiny">chemical_id holdout</text>
  <text x="760" y="1268" class="en-tiny">medium transfer split</text>
  <text x="760" y="1308" class="en-tiny">known species, new chemicals</text>
  <text x="760" y="1326" class="en-tiny">cross-medium generalization</text>
  <text x="760" y="1364" class="en-tiny">R2 / RMSE / MAE / bias</text>

  <rect x="1040" y="1166" width="306" height="286" rx="14" class="dash-ctx"/>
  <text x="1060" y="1198" class="en-h2">AD and Uncertainty</text>
  <text x="1060" y="1232" class="en-tiny">Williams plot AD</text>
  <text x="1060" y="1250" class="en-tiny">leverage + standardized residual</text>
  <text x="1060" y="1290" class="en-tiny">deep ensemble</text>
  <text x="1060" y="1308" class="en-tiny">MC dropout</text>
  <text x="1060" y="1346" class="en-tiny">baseline and deep need</text>
  <text x="1060" y="1364" class="en-tiny">comparable reliability outputs</text>

  <rect x="28" y="1512" width="1344" height="328" rx="20" class="mod-rule"/>
  <text x="54" y="1552" class="en-h1">3. Prediction, SSD, Publication-ready Output</text>

  <rect x="54" y="1578" width="372" height="232" rx="14" class="dash-rule"/>
  <text x="74" y="1610" class="en-h2">Prediction API</text>
  <text x="74" y="1642" class="en-tiny">single prediction</text>
  <text x="92" y="1660" class="en-tiny">chemical + medium + species + duration</text>
  <text x="92" y="1678" class="en-tiny">effect_type + observation</text>
  <text x="92" y="1696" class="en-tiny">effect_level when applicable</text>
  <text x="74" y="1734" class="en-tiny">batch prediction for SSD workflow</text>

  <rect x="446" y="1578" width="446" height="232" rx="14" class="dash-rule"/>
  <text x="466" y="1610" class="en-h2">SSD Workflow</text>
  <text x="466" y="1642" class="en-tiny">user selects chemical + medium + endpoint family</text>
  <text x="466" y="1660" class="en-tiny">EC / LC / ICx can specify effect_level</text>
  <text x="466" y="1678" class="en-tiny">BCF / BAF do not specify effect_level</text>
  <text x="466" y="1716" class="en-tiny">predict N species</text>
  <text x="466" y="1734" class="en-tiny">filter by user-specified historical task R2 threshold</text>
  <text x="466" y="1752" class="en-tiny">fit SSD and report HC5 / HC10 / uncertainty</text>
  <text x="466" y="1770" class="en-tiny">do not mix ECx, NOEC, LOEC into one SSD</text>

  <rect x="912" y="1578" width="434" height="232" rx="14" class="dash-rule"/>
  <text x="932" y="1610" class="en-h2">Figure Standards</text>
  <text x="932" y="1642" class="en-tiny">PNG + SVG</text>
  <text x="932" y="1660" class="en-tiny">300 dpi or higher</text>
  <text x="932" y="1678" class="en-tiny">Chinese font: SimHei only</text>
  <text x="932" y="1696" class="en-tiny">English font: Arial only</text>
  <text x="932" y="1734" class="en-tiny">no fallback font mechanism</text>
  <text x="932" y="1752" class="en-tiny">bold labels except point-value labels</text>
  <text x="932" y="1770" class="en-tiny">avoid heavy dark color blocks</text>

  <path d="M123 460 L123 500" class="arrow-out"/>
  <path d="M433 460 L433 500" class="arrow-chem"/>
  <path d="M842 460 L842 500" class="arrow-ctx"/>
  <path d="M1220 460 L1220 500" class="arrow-out"/>
  <path d="M700 1070 L700 1100" class="arrow-out"/>
  <path d="M700 1480 L700 1512" class="arrow-out"/>

  <text x="700" y="1872" text-anchor="middle" class="zh-note">说明：本图服务于统一多任务残差 QSAR 的正式论文表达，所有后续图件应在同一架构与字体规范下生成。</text>
</svg>
